<svg width="28" height="29" viewBox="0 0 28 29" fill="none" xmlns="http://www.w3.org/2000/svg">
<g clip-path="url(#clip0_201_185)">
<path fill-rule="evenodd" clip-rule="evenodd" d="M0.00656543 28.4144C-0.0185833 28.5616 0.0222834 28.7088 0.113448 28.8208C0.207756 28.9328 0.34293 28.9968 0.490679 28.9968H27.5067C27.6513 28.9968 27.7897 28.9328 27.884 28.8208C27.9783 28.7088 28.0191 28.5584 27.9908 28.4144C26.8309 21.6268 21.0026 16.4713 13.9987 16.4713C6.99792 16.4713 1.1697 21.63 0.00656543 28.4144ZM1.08796 28.0015C2.39255 21.9756 7.68322 17.473 13.9987 17.473C20.3142 17.473 25.6049 21.9756 26.9094 28.0015H1.08796ZM13.9987 0C10.1541 0 7.03564 3.17777 7.03564 7.08839C7.03564 11.0022 10.1572 14.1768 13.9987 14.1768C17.8433 14.1768 20.9618 10.999 20.9618 7.08839C20.9618 3.17458 17.8402 0 13.9987 0ZM13.9987 0.998455C17.2995 0.998455 19.9778 3.72501 19.9778 7.08519C19.9778 10.4454 17.2995 13.1719 13.9987 13.1719C10.6979 13.1719 8.01959 10.4454 8.01959 7.08519C8.01959 3.72501 10.6979 0.998455 13.9987 0.998455Z" fill="black"/>
</g>
<defs>
<clipPath id="clip0_201_185">
<rect width="28" height="29" fill="white"/>
</clipPath>
</defs>
</svg>
