<svg width="21" height="28" viewBox="0 0 21 28" fill="none" xmlns="http://www.w3.org/2000/svg">
<g clip-path="url(#clip0_201_318)">
<path d="M10.0265 -3.64882e-05C9.57582 0.0298674 9.10994 0.264114 8.86181 0.677785L0.243047 15.1214C-0.470963 16.3125 0.460795 17.9124 1.8635 17.9124H9.48467V26.5995C9.48467 27.2474 9.98599 27.8056 10.538 27.9551C11.0899 28.1046 11.8039 27.8704 12.1382 27.3122L20.7518 12.8786C21.4659 11.6874 20.5341 10.0925 19.1263 10.0925H11.5102V1.40046C11.5102 0.752545 11.014 0.194339 10.462 0.0448193C10.3202 0.00494749 10.1734 -0.00502047 10.0265 -3.64882e-05ZM9.48973 3.56849V11.0843C9.48973 11.6376 9.94042 12.0811 10.5025 12.0811H18.8883L11.5153 24.4264V16.9106C11.5153 16.6465 11.4089 16.3923 11.2165 16.2079C11.0241 16.0235 10.7658 15.9138 10.5025 15.9138H2.12175L9.48973 3.56849Z" fill="white"/>
</g>
<defs>
<clipPath id="clip0_201_318">
<rect width="21" height="28" fill="white"/>
</clipPath>
</defs>
</svg>
