<svg width="27" height="25" viewBox="0 0 27 25" fill="none" xmlns="http://www.w3.org/2000/svg">
<g clip-path="url(#clip0_201_315)">
<path d="M13.4576 0C12.2974 0.0116659 11.3863 0.647457 11.3863 0.647457C11.2957 0.711619 11.2222 0.79328 11.1599 0.886608L5.83463 9.33854C5.55167 9.21022 5.24041 9.14022 4.91218 9.14022H2.35422C1.06393 9.14022 0 10.2368 0 11.5667V21.3602C0 22.6902 1.06393 23.7867 2.35422 23.7867H4.91218C5.25739 23.7867 5.59128 23.7051 5.89122 23.5651C7.07399 24.72 8.48313 24.9825 8.48313 24.9825C8.53406 24.9942 8.58499 25 8.63593 25H21.6181C23.7007 25 25.0589 23.6643 25.0589 23.6643C25.1947 23.5301 25.2796 23.3609 25.3136 23.1743C25.3136 23.1743 25.7323 20.5436 26.1511 17.6972C26.3605 16.2739 26.5699 14.7982 26.7284 13.5616C26.8868 12.325 27 11.3859 27 10.8084C27 9.63019 26.2417 8.81941 25.5909 8.52777C24.9401 8.23612 24.3289 8.27112 24.3289 8.27112H16.621C16.5814 5.41297 16.4003 3.53476 16.174 2.479C16.0495 1.88987 15.9193 1.51073 15.8005 1.24242C15.7382 1.10826 15.6816 1.00327 15.625 0.921605C15.5684 0.839944 15.4609 0.723285 15.4609 0.723285C15.4383 0.705786 15.4213 0.688287 15.3987 0.670789C14.9233 0.29748 14.4309 0.110826 13.9669 0.0408306C13.7971 0.0116659 13.6273 0 13.4576 0ZM13.35 1.73238C13.6217 1.72655 13.9386 1.79071 14.2668 2.01237C14.3178 2.13486 14.4083 2.37401 14.5102 2.84648C14.7196 3.83224 14.9459 5.72212 14.9459 9.14022C14.9459 9.62436 15.3251 10.0152 15.7948 10.0152H24.3572H24.3855C24.3855 10.0152 24.6684 10.021 24.9118 10.126C25.1551 10.231 25.2966 10.2485 25.2966 10.8026C25.2966 11.0884 25.1947 12.1092 25.0419 13.3283C24.8835 14.5474 24.6797 16.0173 24.4647 17.4347C24.0742 20.0828 23.729 22.2235 23.6837 22.5385C23.4517 22.731 22.7782 23.2559 21.6124 23.2559H8.75477C8.69818 23.2443 7.82666 23.0401 7.07965 22.3227C7.20415 22.031 7.27206 21.7102 7.27206 21.3719V11.5667C7.27206 11.2109 7.19283 10.8668 7.05701 10.5635C7.08531 10.5401 7.1136 10.5168 7.13624 10.4876L12.4672 2.02403C12.5577 1.9657 12.8973 1.74405 13.35 1.73238ZM2.35422 10.8901H4.91218C5.29134 10.8901 5.56864 11.1759 5.56864 11.5667V21.3602C5.56864 21.751 5.29134 22.0369 4.91218 22.0369H2.35422C1.97506 22.0427 1.69776 21.7569 1.69776 21.3661V11.5726C1.69776 11.1759 1.97506 10.8901 2.35422 10.8901Z" fill="white"/>
</g>
<defs>
<clipPath id="clip0_201_315">
<rect width="27" height="25" fill="white"/>
</clipPath>
</defs>
</svg>
