<svg width="22" height="30" viewBox="0 0 22 30" fill="none" xmlns="http://www.w3.org/2000/svg">
<g clip-path="url(#clip0_201_187)">
<path d="M11 0C4.93277 0 0 4.7901 0 10.6784C0 14.1304 1.80817 18.4145 5.37416 23.4145C8.01478 27.1139 10.6903 29.8538 10.7174 29.8801C10.7909 29.955 10.8916 29.9963 10.9961 29.9963H11C11.1084 29.9963 11.2091 29.9513 11.2826 29.8726C11.3098 29.8426 13.9852 26.9977 16.622 23.2459C20.188 18.1747 21.9961 13.943 21.9961 10.6709C22 4.7901 17.0634 0 11 0ZM10.9923 29.0667C9.30799 27.2714 0.774375 17.8298 0.774375 10.6784C0.774375 5.2024 5.36255 0.749625 11 0.749625C16.6375 0.749625 21.2256 5.2024 21.2256 10.6784C21.2256 17.4513 12.6649 27.2226 10.9923 29.0667Z" fill="black"/>
<path d="M11.0309 4.12305C7.80949 4.12305 5.18823 6.66053 5.18823 9.77897C5.18823 12.8974 7.80949 15.4349 11.0309 15.4349C14.2523 15.4349 16.8736 12.8974 16.8736 9.77897C16.8736 6.66053 14.2523 4.12305 11.0309 4.12305ZM11.0309 14.6815C8.2354 14.6815 5.96261 12.4814 5.96261 9.77522C5.96261 7.06907 8.2354 4.87267 11.0309 4.87267C13.8264 4.87267 16.0992 7.07282 16.0992 9.77897C16.0992 12.4851 13.8264 14.6815 11.0309 14.6815Z" fill="black"/>
</g>
<defs>
<clipPath id="clip0_201_187">
<rect width="22" height="30" fill="white"/>
</clipPath>
</defs>
</svg>
