<svg width="23" height="29" viewBox="0 0 23 29" fill="none" xmlns="http://www.w3.org/2000/svg">
<g clip-path="url(#clip0_201_195)">
<path fill-rule="evenodd" clip-rule="evenodd" d="M14.4287 26.0517V26.0968C14.4287 26.8959 14.1 27.6209 13.5696 28.1461C13.0392 28.6746 12.3038 29 11.5 29C10.693 29 9.96081 28.6746 9.43039 28.1493C8.89997 27.6241 8.57131 26.8959 8.57131 26.1V26.0549H2.0631C1.49689 26.0549 0.982739 25.8261 0.608517 25.4556C0.231041 25.0818 0 24.5727 0 24.012C0 23.548 0.156197 23.1194 0.423033 22.7779C0.693124 22.4267 1.07711 22.1657 1.51967 22.0464C1.80603 21.9691 2.04358 21.808 2.20954 21.5921C2.3755 21.3794 2.46986 21.1088 2.46986 20.8123V11.861C2.46986 9.40244 3.48514 7.16622 5.12196 5.54544C6.19256 4.48533 7.52999 3.68944 9.02037 3.26411V2.45533C9.02037 1.77867 9.30023 1.16644 9.74929 0.721778C10.1984 0.277111 10.8166 0 11.5 0C12.1834 0 12.8016 0.277111 13.2507 0.721778C13.6998 1.16644 13.9796 1.78189 13.9796 2.45533V3.26411C15.4733 3.68944 16.8074 4.48533 17.878 5.54544C19.5149 7.16622 20.5301 9.40244 20.5301 11.861V20.8123C20.5301 21.1056 20.6245 21.3762 20.7905 21.5921C20.9564 21.808 21.194 21.9691 21.4803 22.0464C21.9229 22.1657 22.3069 22.4267 22.577 22.7779C22.8438 23.1227 23 23.5512 23 24.012C23 24.5727 22.769 25.0818 22.3947 25.4523C22.0205 25.8229 21.5064 26.0517 20.9402 26.0517H14.4287ZM13.5436 26.0968V26.0517H9.45317V26.0968C9.45317 26.6542 9.68421 27.1601 10.0552 27.5274C10.4261 27.8948 10.937 28.1236 11.5 28.1236C12.063 28.1236 12.5739 27.8948 12.9448 27.5274C13.3125 27.1601 13.5436 26.6542 13.5436 26.0968ZM9.90549 2.45533V3.06111C10.4229 2.96767 10.9533 2.92256 11.4967 2.92256C12.0402 2.92256 12.5706 2.97089 13.088 3.06111V2.45533C13.088 2.02356 12.909 1.62722 12.6194 1.34367C12.3298 1.05689 11.9328 0.879667 11.4967 0.879667C11.0607 0.879667 10.6604 1.05689 10.3741 1.34367C10.0845 1.62722 9.90549 2.02033 9.90549 2.45533ZM20.0811 22.1206C19.798 21.7532 19.6385 21.2989 19.6385 20.8091V11.8578C19.6385 9.64089 18.7209 7.627 17.2467 6.16411C15.7694 4.70122 13.7356 3.79578 11.4967 3.79578C9.25792 3.79578 7.22411 4.70444 5.74675 6.16411C4.26938 7.627 3.35498 9.64089 3.35498 11.8578V20.8091C3.35498 21.2989 3.19228 21.7532 2.91242 22.1206C2.63257 22.4847 2.23231 22.7586 1.75071 22.8874C1.50014 22.9551 1.28212 23.1066 1.12592 23.3063C0.976231 23.5029 0.885116 23.7446 0.885116 24.0088C0.885116 24.3278 1.01853 24.6178 1.23005 24.8272C1.44157 25.0367 1.73444 25.1688 2.05659 25.1688H20.9369C21.2591 25.1688 21.5519 25.0367 21.7634 24.8272C21.975 24.6178 22.1084 24.3278 22.1084 24.0088C22.1084 23.7446 22.0173 23.4997 21.8676 23.3063C21.7114 23.1066 21.4934 22.9551 21.2428 22.8874C20.7612 22.7586 20.3609 22.4879 20.0811 22.1206Z" fill="black"/>
</g>
<defs>
<clipPath id="clip0_201_195">
<rect width="23" height="29" fill="white"/>
</clipPath>
</defs>
</svg>
