<svg width="18" height="27" viewBox="0 0 18 27" fill="none" xmlns="http://www.w3.org/2000/svg">
<g clip-path="url(#clip0_201_325)">
<path d="M17.3899 5.15872C14.5154 5.15872 9.27416 4.52394 6.49012 0.264255C6.38214 0.100532 6.19829 0 5.99984 0C5.8014 0 5.61755 0.100532 5.50957 0.264255C2.72552 4.52394 -2.5128 5.15872 -5.39024 5.15872C-5.69666 5.15872 -5.95346 5.39426 -5.97389 5.69585C-5.98557 5.87106 -6.23946 10.0187 -4.94374 14.7322C-3.20444 21.0428 0.51638 25.2766 5.81891 26.9713C5.87728 26.9885 5.93856 27 5.99984 27C6.06113 27 6.12241 26.9914 6.18078 26.9713C11.4833 25.2766 15.2041 21.0428 16.9405 14.7322C18.2362 10.0216 17.9823 5.87106 17.9707 5.69585C17.9502 5.39426 17.6963 5.15872 17.3899 5.15872ZM5.99984 25.8195C-4.50308 22.3152 -4.86786 9.11681 -4.82409 6.29904C-1.80074 6.21574 3.02903 5.42298 5.99984 1.57404C8.97066 5.42298 13.8004 6.21574 16.8238 6.29904C16.8705 9.11681 16.5115 22.3095 5.99984 25.8195Z" fill="white"/>
<path d="M12.6421 9.40401L5.02535 16.3953L0.773408 12.6296C0.534108 12.4171 0.166404 12.4372 -0.0524679 12.6727C-0.268421 12.9083 -0.247993 13.2702 -0.00869311 13.4856L4.64014 17.6074C4.75103 17.7051 4.89111 17.7539 5.03119 17.7539C5.17419 17.7539 5.31718 17.7022 5.42808 17.5988L13.4359 10.2456C13.6722 10.0302 13.6839 9.66539 13.465 9.43273C13.2462 9.20007 12.8785 9.18858 12.6421 9.40401Z" fill="white"/>
</g>
<defs>
<clipPath id="clip0_201_325">
<rect width="24" height="27" fill="white" transform="translate(-6)"/>
</clipPath>
</defs>
</svg>
