<svg width="28" height="28" viewBox="0 0 28 28" fill="none" xmlns="http://www.w3.org/2000/svg">
<g clip-path="url(#clip0_201_330)">
<path d="M14.0015 0H15.3052C15.6187 0 15.8765 0.249032 15.8912 0.55959L16.0582 2.04499C16.4303 2.10652 16.7906 2.18562 17.1422 2.27938C17.4967 2.37313 17.8512 2.48739 18.1999 2.6163L19.1081 1.38286C19.2927 1.1309 19.6472 1.06937 19.905 1.24223L22.1316 2.52548C22.3982 2.67783 22.4949 3.00889 22.366 3.28136L21.7566 4.67301C22.0408 4.91033 22.3133 5.15936 22.574 5.42011C22.8348 5.67793 23.0838 5.95333 23.3241 6.24045L24.7304 5.6252C25.0145 5.49922 25.3485 5.62227 25.4862 5.89767L26.7724 8.12724C26.9218 8.38799 26.8486 8.71612 26.6113 8.88898L25.3808 9.80015C25.5097 10.1488 25.621 10.5004 25.7177 10.8578C25.8114 11.2094 25.8906 11.5727 25.955 11.9418L27.4785 12.1118C27.7773 12.144 28 12.3989 28 12.6918V15.2964C28 15.6099 27.751 15.8677 27.4404 15.8824L25.955 16.0494C25.8935 16.4215 25.8144 16.7818 25.7206 17.1334C25.6269 17.4879 25.5126 17.8424 25.3837 18.1911L26.6171 19.0993C26.8691 19.2839 26.9306 19.6384 26.7578 19.8962L25.4745 22.1228C25.3222 22.3895 24.9911 22.4861 24.7186 22.3572L23.327 21.7478C23.0897 22.032 22.8406 22.3045 22.5799 22.5652C22.3221 22.826 22.0467 23.075 21.7595 23.3153L22.3748 24.7216C22.5008 25.0058 22.3777 25.3398 22.1023 25.4775L19.8728 26.7636C19.612 26.913 19.2839 26.8398 19.111 26.6025L18.1999 25.372C17.8512 25.5009 17.4996 25.6122 17.1422 25.7089C16.7906 25.8027 16.4273 25.8818 16.0552 25.9462L15.8853 27.4697C15.8531 27.7685 15.5982 27.9912 15.3052 27.9912H12.7006C12.3872 27.9912 12.1293 27.7422 12.1147 27.4316L11.9477 25.9462C11.5756 25.8847 11.2152 25.8056 10.8637 25.7118C10.5092 25.6181 10.1547 25.5038 9.80601 25.3749L8.89777 26.6084C8.71319 26.8603 8.35869 26.9218 8.10087 26.749L5.87423 25.4657C5.60762 25.3134 5.51093 24.9823 5.63985 24.7098L6.24924 23.3182C5.96212 23.078 5.68672 22.8289 5.4289 22.5711L5.3996 22.5389C5.14764 22.2869 4.91033 22.0232 4.6818 21.7478L3.27258 22.3631C2.98839 22.4891 2.65439 22.366 2.51669 22.0906L1.23051 19.861C1.08109 19.6003 1.15434 19.2722 1.39165 19.0993L2.62509 18.1881C2.49618 17.8395 2.38485 17.4879 2.28817 17.1305C2.19441 16.7789 2.11531 16.4156 2.05378 16.0465L0.530292 15.8765C0.222664 15.8502 0 15.5953 0 15.3023V12.6977C0 12.3842 0.249032 12.1264 0.55959 12.1118L2.04499 11.9448C2.10652 11.5727 2.18562 11.2123 2.27938 10.8607C2.37313 10.5062 2.48739 10.1517 2.6163 9.80308L1.38286 8.89484C1.1309 8.71027 1.06937 8.35576 1.24223 8.09794L2.52548 5.8713C2.67783 5.60469 3.00889 5.508 3.28136 5.63692L4.67301 6.24631C4.91326 5.95919 5.16229 5.68379 5.42011 5.42597L5.45234 5.39667C5.7043 5.14471 5.96798 4.9074 6.24338 4.67887L5.62813 3.26965C5.50214 2.98546 5.6252 2.65146 5.9006 2.51376L8.13017 1.22758C8.39092 1.07816 8.71905 1.15141 8.89191 1.38872L9.80308 2.62216C10.1517 2.49325 10.5033 2.38192 10.8607 2.28524C11.2123 2.19148 11.5756 2.11238 11.9477 2.04792L12.1176 0.524432C12.1528 0.222664 12.4047 0 12.7006 0H14.0015ZM14.0015 5.18866C16.4332 5.18866 18.6364 6.176 20.2302 7.7698C21.824 9.36361 22.8113 11.5668 22.8113 13.9985C22.8113 16.4303 21.824 18.6335 20.2302 20.2273C18.6364 21.8211 16.4332 22.8084 14.0015 22.8084C11.5697 22.8084 9.36654 21.8211 7.77273 20.2273C6.17893 18.6335 5.19159 16.4303 5.19159 13.9985C5.19159 11.5668 6.17893 9.36361 7.77273 7.7698C9.36361 6.176 11.5668 5.18866 14.0015 5.18866ZM19.4011 8.59893C18.0211 7.219 16.1109 6.3635 13.9985 6.3635C11.8891 6.3635 9.97886 7.219 8.596 8.59893C7.21607 9.97886 6.36057 11.8891 6.36057 14.0015C6.36057 16.1109 7.21607 18.0211 8.596 19.404C9.97593 20.7839 11.8862 21.6394 13.9985 21.6394C16.108 21.6394 18.0182 20.7839 19.4011 19.404C20.781 18.0241 21.6365 16.1138 21.6365 14.0015C21.6394 11.892 20.7839 9.98179 19.4011 8.59893ZM14.7808 1.17485H13.2221L13.061 2.62216C13.0317 2.88291 12.8266 3.10265 12.5541 3.1378C12.0883 3.19933 11.6225 3.29308 11.1654 3.41613C10.7113 3.53626 10.2689 3.68568 9.84995 3.85853C9.60385 3.97572 9.29622 3.90541 9.12922 3.67689L8.26494 2.50497L6.9143 3.28429L7.50026 4.62321C7.60573 4.86345 7.53835 5.15057 7.32154 5.31757C6.95825 5.59883 6.60961 5.90353 6.2844 6.2258L6.25803 6.2551C5.92404 6.5891 5.61348 6.94067 5.33222 7.30397C5.17401 7.52077 4.88103 7.60866 4.62614 7.49733L3.28722 6.91137L2.50204 8.26201L3.67396 9.1263C3.8849 9.28157 3.97279 9.56576 3.86732 9.82065C3.68861 10.2484 3.53919 10.6996 3.4132 11.1654C3.29308 11.6137 3.20226 12.0678 3.14073 12.5249C3.1173 12.7973 2.90635 13.0258 2.62216 13.0581L1.17485 13.2192V14.7808L2.62216 14.9419C2.88291 14.9712 3.10265 15.1763 3.1378 15.4488C3.19933 15.9146 3.29308 16.3805 3.41613 16.8375C3.53919 17.2945 3.68568 17.734 3.85853 18.1559C3.97572 18.4049 3.90541 18.7096 3.67689 18.8766L2.50497 19.7409L3.28429 21.0916L4.62321 20.5056C4.86345 20.4001 5.15057 20.4675 5.31757 20.6843C5.59883 21.0476 5.90353 21.3963 6.2258 21.7215L6.2551 21.7478C6.5891 22.0818 6.94067 22.3924 7.30397 22.6736C7.52077 22.8319 7.60866 23.1248 7.49733 23.3797L6.91137 24.7186L8.26201 25.498L9.1263 24.326C9.28157 24.1151 9.56576 24.0272 9.82065 24.1327C10.2484 24.3114 10.6996 24.4608 11.1654 24.5868C11.6137 24.7069 12.0678 24.7977 12.5278 24.8593C12.8003 24.8827 13.0288 25.0936 13.061 25.3778L13.2221 26.8252H14.7808L14.9419 25.3778C14.9712 25.1171 15.1763 24.8974 15.4488 24.8622C15.9146 24.8007 16.3805 24.7069 16.8404 24.5839C17.2945 24.4637 17.734 24.3143 18.1559 24.1415C18.4049 24.0243 18.7096 24.0946 18.8766 24.3231L19.7409 25.495L21.0945 24.7216L20.5085 23.3827C20.4031 23.1424 20.4704 22.8553 20.6872 22.6854C21.0564 22.4012 21.4109 22.0877 21.7508 21.7478C22.0818 21.4197 22.3924 21.0681 22.6766 20.699C22.8348 20.4822 23.1278 20.3943 23.3827 20.5056L24.7216 21.0916L25.5009 19.7409L24.329 18.8766C24.118 18.7214 24.0301 18.4372 24.1356 18.1823C24.3143 17.7545 24.4637 17.3033 24.5897 16.8375C24.7098 16.3892 24.8007 15.9351 24.8622 15.4781C24.8856 15.2056 25.0966 14.9771 25.3808 14.9449L26.8281 14.7837V13.2221L25.3808 13.061C25.12 13.0317 24.9003 12.8266 24.8651 12.5541C24.8036 12.0883 24.7098 11.6225 24.5868 11.1654C24.4667 10.7113 24.3173 10.2689 24.1444 9.84995C24.0272 9.60385 24.0975 9.29622 24.326 9.12922L25.498 8.26494L24.7186 6.9143L23.3797 7.50026C23.1395 7.60573 22.8524 7.53835 22.6824 7.32154C22.3982 6.95239 22.0848 6.59789 21.7449 6.25803C21.4168 5.92696 21.0652 5.61641 20.696 5.33222C20.4792 5.17401 20.3913 4.88103 20.5027 4.62614L21.0886 3.28722L19.738 2.5079L18.8737 3.67982C18.7184 3.89076 18.4342 3.97865 18.1793 3.87318C17.7516 3.69446 17.3004 3.54505 16.8346 3.41906C16.3863 3.29894 15.9322 3.20812 15.4722 3.14659C15.1997 3.12316 14.9712 2.91221 14.939 2.62802L14.7808 1.17485Z" fill="white"/>
</g>
<defs>
<clipPath id="clip0_201_330">
<rect width="28" height="28" fill="white"/>
</clipPath>
</defs>
</svg>
