<svg width="33" height="29" viewBox="0 0 33 29" fill="none" xmlns="http://www.w3.org/2000/svg">
<g clip-path="url(#clip0_201_190)">
<path d="M0.383766 -0.000732422C0.172694 -0.000732422 0 0.170978 0 0.380847C0 0.590715 0.172694 0.762425 0.383766 0.762425H4.6781L8.80358 20.1161C8.7345 20.3565 8.96093 20.6312 9.21037 20.6045H28.3987C28.602 20.6083 28.7863 20.4252 28.7863 20.223C28.7863 20.0207 28.5982 19.8376 28.3987 19.8414H9.52122L8.70764 16.0256H29.9337C30.1064 16.0256 30.2676 15.8959 30.306 15.728L32.9923 4.2806C33.0422 4.05928 32.8503 3.81887 32.6201 3.81506H6.10571L5.3612 0.29691C5.32283 0.129016 5.16165 -0.000732422 4.98895 -0.000732422H0.383766ZM6.27073 4.57822H32.1404L29.6344 15.2624H8.53878L6.27073 4.57822ZM13.048 22.894C11.3556 22.894 9.9779 24.2639 9.9779 25.9466C9.9779 27.6294 11.3556 28.9993 13.048 28.9993C14.7404 28.9993 16.1182 27.6294 16.1182 25.9466C16.1182 24.2677 14.7404 22.894 13.048 22.894ZM24.561 22.894C22.8686 22.894 21.4909 24.2639 21.4909 25.9466C21.4909 27.6294 22.8686 28.9993 24.561 28.9993C26.2534 28.9993 27.6311 27.6294 27.6311 25.9466C27.6311 24.2677 26.2534 22.894 24.561 22.894ZM13.048 23.6572C14.326 23.6572 15.3506 24.676 15.3506 25.9466C15.3506 27.2173 14.326 28.2361 13.048 28.2361C11.7701 28.2361 10.7454 27.2173 10.7454 25.9466C10.7454 24.6798 11.7701 23.6572 13.048 23.6572ZM24.561 23.6572C25.8389 23.6572 26.8636 24.676 26.8636 25.9466C26.8636 27.2173 25.8389 28.2361 24.561 28.2361C23.2831 28.2361 22.2584 27.2173 22.2584 25.9466C22.2584 24.6798 23.2831 23.6572 24.561 23.6572Z" fill="black"/>
</g>
<defs>
<clipPath id="clip0_201_190">
<rect width="33" height="29" fill="white"/>
</clipPath>
</defs>
</svg>
